<?xml version="1.0" encoding="utf-8"?>
<!-- Generator: Adobe Illustrator 17.0.0, SVG Export Plug-In . SVG Version: 6.00 Build 0)  -->
<!DOCTYPE svg PUBLIC "-//W3C//DTD SVG 1.1//EN" "http://www.w3.org/Graphics/SVG/1.1/DTD/svg11.dtd">
<svg version="1.1" id="Capa_1" xmlns="http://www.w3.org/2000/svg" xmlns:xlink="http://www.w3.org/1999/xlink" x="0px" y="0px"
	 width="415.824px" height="393.626px" viewBox="0 0 415.824 393.626" enable-background="new 0 0 415.824 393.626"
	 xml:space="preserve">
<g>
	<path fill="#A00913" d="M180.404,140.225l84.773,84.773l-84.773,84.773v-58.552V140.225 M180.401,123.702
		c-2.129,0-4.275,0.411-6.319,1.258c-6.174,2.557-10.199,8.582-10.199,15.265v110.993v58.552c0,6.683,4.026,12.707,10.199,15.265
		c2.044,0.847,4.191,1.258,6.319,1.258c4.3,0,8.526-1.679,11.687-4.84l84.773-84.773c6.452-6.452,6.452-16.914,0-23.366
		l-84.773-84.773C188.927,125.381,184.701,123.702,180.401,123.702L180.401,123.702z"/>
</g>
<g>
	<path fill="none" stroke="#AC771B" stroke-miterlimit="10" d="M152.19,239.129c-1.064,0-2.138-0.206-3.16-0.629
		c-3.087-1.279-5.099-4.291-5.099-7.632V61.322c0-3.341,2.013-6.354,5.099-7.632c1.022-0.423,2.096-0.629,3.16-0.629
		c2.15,0,4.263,0.839,5.843,2.42l84.773,84.772c3.226,3.226,3.226,8.457,0,11.683l-84.773,84.772
		C156.453,238.289,154.34,239.129,152.19,239.129z"/>
	<path fill="none" stroke="#AC771B" stroke-miterlimit="10" d="M152.192,61.322l84.773,84.773l-84.773,84.773v-58.552V61.322
		 M152.188,44.799c-2.128,0-4.275,0.411-6.319,1.258c-6.174,2.557-10.199,8.582-10.199,15.265v110.993v58.552
		c0,6.683,4.026,12.707,10.199,15.265c2.044,0.847,4.191,1.258,6.319,1.258c4.3,0,8.526-1.679,11.687-4.84l84.773-84.773
		c6.452-6.452,6.452-16.914,0-23.366l-84.773-84.773C160.714,46.478,156.488,44.799,152.188,44.799L152.188,44.799z"/>
</g>
<g>
	<path fill="#AC771B" d="M103.569,343.433h2.66c1.652,0,2.911,0.469,3.775,1.404c0.864,0.937,1.297,2.264,1.297,3.982
		c0,1.718-0.433,3.06-1.297,4.023c-0.865,0.964-2.106,1.445-3.726,1.445h-2.709V343.433z M106.13,353.281
		c1.299,0,2.277-0.389,2.933-1.165s0.983-1.875,0.983-3.296c0-1.398-0.328-2.479-0.983-3.238s-1.633-1.141-2.933-1.141h-1.338v8.84
		H106.13z"/>
	<path fill="#AC771B" d="M119.067,343.433h6.163v1.041h-4.94v3.586h4.164v1.024h-4.164v4.163h5.105v1.041h-6.328V343.433z"/>
	<path fill="#AC771B" d="M133.094,343.433h1.223v9.814h4.792v1.041h-6.014V343.433z"/>
	<path fill="#AC771B" d="M151.417,350.868h-4.048l-1.107,3.42h-1.239l3.718-10.855h1.355l3.701,10.855h-1.289L151.417,350.868z
		 M151.103,349.894l-0.562-1.752c-0.44-1.377-0.815-2.604-1.124-3.685h-0.066c-0.364,1.333-0.733,2.562-1.107,3.685l-0.562,1.752
		H151.103z"/>
	<path fill="#AC771B" d="M160.751,343.433h1.223v4.594h5.238v-4.594h1.223v10.855h-1.223V349.1h-5.238v5.188h-1.223V343.433z"/>
	<path fill="#AC771B" d="M178.381,353.792c-0.694-0.462-1.237-1.123-1.627-1.982c-0.391-0.859-0.586-1.855-0.586-2.99
		s0.195-2.123,0.586-2.966c0.391-0.843,0.934-1.489,1.627-1.941c0.694-0.451,1.492-0.678,2.395-0.678
		c0.893,0,1.686,0.227,2.379,0.678c0.695,0.452,1.236,1.099,1.629,1.941c0.391,0.843,0.586,1.831,0.586,2.966
		s-0.195,2.131-0.586,2.99c-0.393,0.859-0.934,1.521-1.629,1.982c-0.693,0.463-1.486,0.694-2.379,0.694
		C179.873,354.487,179.075,354.255,178.381,353.792z M182.52,352.843c0.5-0.381,0.889-0.914,1.164-1.604
		c0.275-0.688,0.414-1.495,0.414-2.42c0-0.914-0.139-1.71-0.414-2.388s-0.664-1.2-1.164-1.569c-0.502-0.369-1.082-0.554-1.744-0.554
		c-0.671,0-1.258,0.185-1.759,0.554c-0.501,0.369-0.89,0.892-1.165,1.569s-0.413,1.474-0.413,2.388c0,0.925,0.138,1.734,0.413,2.429
		s0.667,1.229,1.173,1.603c0.507,0.375,1.091,0.562,1.751,0.562C181.438,353.412,182.018,353.223,182.52,352.843z"/>
	<path fill="#AC771B" d="M192.029,353.562l5.85-9.088h-5.32v-1.041h6.84v0.728l-5.849,9.087h5.898v1.041h-7.419V353.562z"/>
	<path fill="#AC771B" d="M224.413,343.433h2.659c1.652,0,2.911,0.469,3.775,1.404c0.865,0.937,1.298,2.264,1.298,3.982
		c0,1.718-0.433,3.06-1.298,4.023c-0.864,0.964-2.106,1.445-3.726,1.445h-2.709V343.433z M226.974,353.281
		c1.3,0,2.277-0.389,2.933-1.165s0.983-1.875,0.983-3.296c0-1.398-0.328-2.479-0.983-3.238s-1.633-1.141-2.933-1.141h-1.338v8.84
		H226.974z"/>
	<path fill="#AC771B" d="M239.91,343.433h6.162v1.041h-4.939v3.586h4.163v1.024h-4.163v4.163h5.104v1.041h-6.327V343.433z"/>
	<path fill="#AC771B" d="M254.805,354.057c-0.645-0.286-1.204-0.683-1.677-1.189l0.743-0.843c0.396,0.43,0.859,0.769,1.388,1.017
		c0.528,0.247,1.079,0.371,1.652,0.371c0.737,0,1.319-0.17,1.743-0.512s0.636-0.799,0.636-1.371c0-0.364-0.077-0.667-0.231-0.909
		s-0.353-0.435-0.595-0.578s-0.584-0.314-1.024-0.513l-1.569-0.693c-0.639-0.275-1.165-0.628-1.578-1.058s-0.619-1.002-0.619-1.719
		c0-0.539,0.143-1.024,0.43-1.453c0.286-0.43,0.686-0.766,1.197-1.008c0.513-0.242,1.083-0.364,1.71-0.364
		c0.628,0,1.215,0.122,1.76,0.364c0.546,0.242,1.011,0.567,1.396,0.975l-0.661,0.776c-0.716-0.694-1.548-1.041-2.495-1.041
		c-0.639,0-1.15,0.154-1.536,0.463s-0.578,0.716-0.578,1.223c0,0.341,0.088,0.628,0.265,0.859c0.176,0.23,0.38,0.413,0.611,0.545
		c0.23,0.132,0.545,0.286,0.941,0.463l1.569,0.693c0.716,0.298,1.27,0.667,1.661,1.107c0.391,0.44,0.586,1.035,0.586,1.784
		c0,0.573-0.148,1.091-0.446,1.553c-0.297,0.463-0.722,0.826-1.271,1.091c-0.552,0.265-1.19,0.396-1.917,0.396
		C256.145,354.487,255.449,354.343,254.805,354.057z"/>
	<path fill="#AC771B" d="M268.063,343.433h1.223v10.855h-1.223V343.433z"/>
	<path fill="#AC771B" d="M279.34,353.809c-0.732-0.451-1.303-1.101-1.71-1.949c-0.408-0.848-0.611-1.845-0.611-2.99
		s0.209-2.143,0.628-2.991c0.418-0.848,1.002-1.5,1.751-1.958c0.749-0.456,1.603-0.686,2.562-0.686c1.2,0,2.23,0.441,3.089,1.322
		l-0.677,0.81c-0.661-0.705-1.454-1.058-2.38-1.058c-0.749,0-1.401,0.185-1.958,0.554c-0.556,0.369-0.985,0.892-1.288,1.569
		c-0.304,0.678-0.454,1.479-0.454,2.404c0,1.41,0.324,2.525,0.975,3.346c0.649,0.82,1.553,1.23,2.709,1.23
		c0.408,0,0.799-0.062,1.174-0.189c0.374-0.127,0.677-0.295,0.908-0.504v-2.958h-2.379v-1.024h3.503v4.494
		c-0.364,0.386-0.832,0.691-1.404,0.917c-0.573,0.226-1.212,0.339-1.917,0.339C280.912,354.487,280.072,354.261,279.34,353.809z"/>
	<path fill="#AC771B" d="M293.194,343.433h1.255l4.098,7.039l1.189,2.23h0.066l-0.05-0.728c-0.011-0.176-0.033-0.548-0.065-1.115
		c-0.033-0.566-0.05-1.082-0.05-1.545v-5.882h1.156v10.855h-1.256l-4.098-7.038l-1.189-2.23h-0.065l0.049,0.793
		c0.077,0.958,0.116,1.801,0.116,2.527v5.948h-1.156V343.433z"/>
</g>
</svg>
